<svg width="16" height="16" viewBox="0 0 16 16" fill="none" xmlns="http://www.w3.org/2000/svg">
    <path d="M15.996 16L16 15.9993V10.1313C16 7.26067 15.382 5.04933 12.026 5.04933C10.4127 5.04933 9.33 5.93467 8.888 6.774H8.84133V5.31733H5.65933V15.9993H8.97267V10.71C8.97267 9.31733 9.23667 7.97067 10.9613 7.97067C12.6607 7.97067 12.686 9.56 12.686 10.7993V16H15.996Z" fill="#010D00" fill-opacity="0.7"/>
    <path d="M0.264 5.318H3.58133V16H0.264V5.318Z" fill="#010D00" fill-opacity="0.7"/>
    <path d="M1.92133 0C0.860667 0 0 0.860667 0 1.92133C0 2.982 0.860667 3.86067 1.92133 3.86067C2.982 3.86067 3.84267 2.982 3.84267 1.92133C3.842 0.860667 2.98133 0 1.92133 0Z" fill="#010D00" fill-opacity="0.7"/>
</svg>
