<svg width="11" height="12" viewBox="0 0 11 12" fill="none" xmlns="http://www.w3.org/2000/svg">
    <path d="M10.7969 11.3987C10.7969 11.73 10.5283 11.9985 10.1971 11.9985C9.8658 11.9985 9.59724 11.73 9.59724 11.3987V10.199C9.59724 9.2052 8.79159 8.39954 7.79776 8.39954H2.99914C2.00531 8.39954 1.19966 9.2052 1.19966 10.199V11.3987C1.19966 11.73 0.931104 11.9985 0.599828 11.9985C0.268552 11.9985 0 11.73 0 11.3987V10.199C0 8.54265 1.34276 7.19989 2.99914 7.19989H7.79776C9.45414 7.19989 10.7969 8.54265 10.7969 10.199V11.3987ZM5.39845 6.00023C3.74207 6.00023 2.39931 4.65747 2.39931 3.00109C2.39931 1.34471 3.74207 0.00195312 5.39845 0.00195312C7.05483 0.00195312 8.39759 1.34471 8.39759 3.00109C8.39759 4.65747 7.05483 6.00023 5.39845 6.00023ZM5.39845 4.80058C6.39228 4.80058 7.19793 3.99492 7.19793 3.00109C7.19793 2.00726 6.39228 1.20161 5.39845 1.20161C4.40462 1.20161 3.59897 2.00726 3.59897 3.00109C3.59897 3.99492 4.40462 4.80058 5.39845 4.80058Z" fill="white"/>
</svg>
