<svg width="16" height="14" viewBox="0 0 16 14" fill="none" xmlns="http://www.w3.org/2000/svg">
    <path d="M15.9999 2.03994C15.4399 2.27994 14.7999 2.43994 14.0799 2.51994C14.7199 2.11994 15.2799 1.47994 15.5199 0.679941C14.8799 1.07994 14.1599 1.31994 13.4399 1.47994C12.8799 0.839941 11.9999 0.439941 11.0399 0.439941C9.19992 0.439941 7.75992 1.87994 7.75992 3.71994C7.75992 3.95994 7.75992 4.19994 7.83992 4.43994C5.11992 4.35994 2.71992 3.07994 1.11992 1.07994C0.799922 1.55994 0.639922 2.11994 0.639922 2.75994C0.639922 3.87994 1.19992 4.91994 2.07992 5.47994C1.59992 5.47994 1.11992 5.31994 0.639922 5.07994C0.639922 5.07994 0.639922 5.07994 0.639922 5.15994C0.639922 6.75994 1.75992 8.03994 3.27992 8.35994C3.03992 8.43994 2.71992 8.43994 2.39992 8.43994C2.15992 8.43994 1.99992 8.43994 1.75992 8.35994C2.15992 9.63994 3.35992 10.5999 4.79992 10.5999C3.67992 11.4799 2.23992 12.0399 0.719922 12.0399C0.479922 12.0399 0.159922 12.0399 -0.0800781 11.9599C1.35992 12.9199 3.11992 13.3999 4.95992 13.3999C10.9599 13.3999 14.3199 8.35994 14.3199 4.03994C14.3199 3.87994 14.3199 3.71994 14.3199 3.63994C15.0399 3.23994 15.5199 2.67994 15.9999 2.03994Z" fill="#010D00" fill-opacity="0.7"/>
</svg>
