<svg width="10" height="13" viewBox="0 0 10 13" fill="none" xmlns="http://www.w3.org/2000/svg">
    <path d="M9.66587 3.19738H2.35711C1.67987 3.19738 1.12622 2.6462 1.12622 1.96649C1.12622 1.28925 1.6774 0.735592 2.35711 0.735592H9.66834C9.85124 0.735592 9.99707 0.587291 9.99707 0.406858C9.99707 0.223954 9.84877 0.078125 9.66834 0.078125H2.35711C1.31654 0.078125 0.46875 0.925911 0.46875 1.96649V10.1898C0.46875 11.2303 1.31654 12.0781 2.35711 12.0781H9.66834C9.85124 12.0781 9.99707 11.9298 9.99707 11.7494V3.52612C9.9946 3.34568 9.84877 3.19738 9.66587 3.19738ZM9.33713 11.4207H2.35711C1.67987 11.4207 1.12622 10.8695 1.12622 10.1898V3.40006C1.45742 3.6843 1.88749 3.85732 2.35711 3.85732H9.33713V11.4207Z" fill="#989898"/>
    <path d="M2.46092 1.66741C2.27802 1.66741 2.13219 1.81572 2.13219 1.99615C2.13219 2.17658 2.28049 2.32488 2.46092 2.32488H8.63518C8.81808 2.32488 8.96391 2.17658 8.96391 1.99615C8.96391 1.81572 8.81561 1.66741 8.63518 1.66741H2.46092Z" fill="#989898"/>
    <path d="M3.61767 9.98214C3.65474 9.9945 3.69182 10.0019 3.72889 10.0019C3.86484 10.0019 3.99089 9.91788 4.03785 9.78441L4.43827 8.66474H5.98059C5.99295 8.66474 6.00778 8.66474 6.02014 8.66226L6.42055 9.78441C6.46751 9.91788 6.59604 10.0019 6.72951 10.0019C6.76659 10.0019 6.80366 9.9945 6.84074 9.98214C7.01128 9.92035 7.10026 9.7325 7.03847 9.56196L5.54063 5.36257C5.53816 5.35269 5.53322 5.3428 5.52828 5.33291L5.51345 5.30325C5.51097 5.29831 5.50603 5.29337 5.50356 5.28595C5.50109 5.28348 5.49862 5.27854 5.49614 5.27607C5.49367 5.27112 5.48873 5.26618 5.48379 5.26124C5.48131 5.25876 5.47884 5.25382 5.4739 5.25135C5.47143 5.24641 5.46648 5.24393 5.46154 5.23899C5.4566 5.23405 5.45413 5.23158 5.44918 5.22663C5.44671 5.22416 5.44177 5.22169 5.4393 5.21674C5.43435 5.2118 5.42941 5.20933 5.42447 5.20439C5.42199 5.20191 5.41705 5.19944 5.41458 5.19697C5.40964 5.1945 5.40469 5.18956 5.39975 5.18708L5.38492 5.17967C5.38492 5.17967 5.37503 5.17473 5.37009 5.17226C5.3602 5.16731 5.35032 5.16237 5.34043 5.1599H5.33796L5.3083 5.15248C5.30335 5.15248 5.30088 5.15001 5.29594 5.15001C5.28852 5.14754 5.28358 5.14754 5.27617 5.14507C5.27122 5.14507 5.26628 5.14507 5.26133 5.14259C5.25639 5.14259 5.24898 5.14012 5.24403 5.14012C5.23909 5.14012 5.23415 5.14012 5.2292 5.14012H5.2119C5.20696 5.14012 5.19954 5.14012 5.1946 5.14259C5.18966 5.14259 5.18471 5.14259 5.17977 5.14507C5.17235 5.14507 5.16741 5.14754 5.16 5.15001C5.15505 5.15001 5.15258 5.15248 5.14764 5.15248C5.13775 5.15495 5.12786 5.15742 5.12045 5.1599H5.11798C5.10809 5.16237 5.0982 5.16731 5.08832 5.17226L5.05866 5.18708C5.05371 5.18956 5.04877 5.1945 5.04136 5.19697C5.03888 5.19944 5.03394 5.20191 5.03147 5.20439C5.02653 5.20933 5.02158 5.2118 5.01664 5.21674C5.01417 5.21922 5.00922 5.22169 5.00675 5.22663L4.99439 5.23899C4.99439 5.23899 4.98698 5.24641 4.98204 5.25135C4.97956 5.25382 4.97709 5.25876 4.97215 5.26124C4.96721 5.26618 4.96473 5.27112 4.95979 5.27607C4.95732 5.27854 4.95485 5.28348 4.95237 5.28595C4.9499 5.29089 4.94496 5.29584 4.94249 5.30078L4.92766 5.33044C4.92271 5.34033 4.91777 5.35022 4.9153 5.3601L3.41252 9.55948C3.35814 9.7325 3.44712 9.92035 3.61767 9.98214ZM5.23167 6.45011L5.7878 8.00727H4.67308L5.23167 6.45011Z" fill="#989898"/>
</svg>
