<svg width="12" height="13" viewBox="0 0 12 13" fill="none" xmlns="http://www.w3.org/2000/svg">
    <path d="M2.85655 3.08838H2.00415C1.51403 3.08838 1.1167 3.48571 1.1167 3.97584V5.09118H10.149V3.97584C10.149 3.48571 9.75168 3.08838 9.26155 3.08838H8.40916V3.37982C8.40916 3.6739 8.17076 3.91229 7.87668 3.91229C7.58261 3.91229 7.34421 3.6739 7.34421 3.37982V3.08838H3.92149V3.37982C3.92149 3.6739 3.6831 3.91229 3.38902 3.91229C3.09494 3.91229 2.85655 3.6739 2.85655 3.37982V3.08838ZM3.92149 2.02344H7.34421V1.13599C7.34421 0.841911 7.58261 0.603516 7.87668 0.603516C8.17076 0.603516 8.40916 0.841911 8.40916 1.13599V2.02344H9.26155C10.3398 2.02344 11.2139 2.89756 11.2139 3.97584V10.5233C11.2139 11.6015 10.3398 12.4757 9.26155 12.4757H2.00415C0.925876 12.4757 0.0517578 11.6015 0.0517578 10.5233V3.97584C0.0517578 2.89756 0.925876 2.02344 2.00415 2.02344H2.85655V1.13599C2.85655 0.841911 3.09494 0.603516 3.38902 0.603516C3.6831 0.603516 3.92149 0.841911 3.92149 1.13599V2.02344ZM1.1167 6.15612V10.5233C1.1167 11.0134 1.51403 11.4107 2.00415 11.4107H9.26155C9.75168 11.4107 10.149 11.0134 10.149 10.5233V6.15612H1.1167Z" fill="white"/>
</svg>
