<svg width="17" height="17" viewBox="0 0 17 17" fill="none" xmlns="http://www.w3.org/2000/svg">
    <path d="M16.5467 14.7335L13.6 11.9002C14.3933 10.9935 15.0733 9.06684 15.0733 7.59351C15.0733 3.51351 11.6733 0.113508 7.59333 0.113508C3.4 0.000174552 0 3.51351 0 7.59351C0 11.6735 3.4 15.0735 7.48 15.0735C9.06667 15.0735 10.54 14.3935 11.7867 13.7135L14.62 16.3202C15.4133 17.1135 15.98 17.1135 16.5467 16.5468C17.1133 15.9802 17.1133 15.4135 16.5467 14.7335ZM7.48 13.1468C4.42 13.1468 1.92667 10.6535 1.92667 7.59351C1.92667 4.53351 4.42 2.04017 7.48 2.04017C10.54 2.04017 13.0333 4.53351 13.0333 7.59351C13.0333 10.5402 10.54 13.1468 7.48 13.1468Z"
          fill="#343746"/>
</svg>
